<svg width="221" height="259" viewBox="0 0 221 259" fill="none" xmlns="http://www.w3.org/2000/svg">
<path opacity="0.1" d="M219.361 106.091L176.717 32.2293C176.15 31.2495 175.396 30.3909 174.498 29.7026C173.6 29.0142 172.574 28.5096 171.481 28.2176L71.6192 1.45965C67.2051 0.276881 62.5018 0.896072 58.5442 3.18101C54.5866 5.46596 51.6987 9.22948 50.5159 13.6436L1.45977 196.724C0.276995 201.138 0.896189 205.841 3.18113 209.799C5.46607 213.756 9.22959 216.644 13.6438 217.827L163.437 257.964C167.851 259.147 172.554 258.527 176.512 256.243C180.469 253.958 183.357 250.194 184.54 245.78L220.217 112.631C220.511 111.538 220.586 110.398 220.439 109.276C220.292 108.153 219.926 107.071 219.361 106.091ZM172.191 58.856L194.038 96.6969L164.194 88.7002L172.191 58.856ZM167.896 241.32L18.1034 201.183L67.1596 18.1033L158.7 42.6314L145.321 92.5623C144.729 94.7694 145.039 97.121 146.181 99.0998C147.324 101.079 149.206 102.523 151.413 103.114L201.344 116.493L167.896 241.32ZM156.907 149.183C156.316 151.39 154.872 153.272 152.893 154.414C150.914 155.557 148.563 155.866 146.356 155.275L79.781 137.436C77.5739 136.845 75.6921 135.401 74.5496 133.422C73.4072 131.443 73.0976 129.092 73.689 126.884C74.2803 124.677 75.7243 122.796 77.7031 121.653C79.6819 120.511 82.0335 120.201 84.2406 120.792L150.815 138.631C153.022 139.222 154.904 140.666 156.047 142.645C157.189 144.624 157.499 146.976 156.907 149.183ZM147.988 182.47C147.397 184.677 145.953 186.559 143.974 187.701C141.995 188.844 139.643 189.153 137.436 188.562L70.8617 170.723C68.6546 170.132 66.7728 168.688 65.6303 166.709C64.4879 164.73 64.1783 162.379 64.7697 160.172C65.361 157.965 66.805 156.083 68.7838 154.94C70.7626 153.798 73.1142 153.488 75.3213 154.08L141.896 171.918C144.103 172.51 145.985 173.954 147.127 175.932C148.27 177.911 148.579 180.263 147.988 182.47Z" fill="white"/>
</svg>
