<svg width="70" height="48" viewBox="0 0 70 48" fill="none" xmlns="http://www.w3.org/2000/svg">
<path d="M0 29.5017C0 23.2292 0.321839 18.3389 0.965517 14.8306C1.71647 11.2159 3.05747 8.34552 4.98851 6.21927C7.02682 3.98671 10.0843 2.39203 14.1609 1.43522C18.2375 0.478407 23.7088 0 30.5747 0V11.0033C25.6398 11.0033 22.4215 11.7475 20.9195 13.2359C20.1686 13.9801 19.6322 15.0432 19.3103 16.4252C19.0958 17.701 18.9885 19.402 18.9885 21.5282V23.6013H30.5747V48H0V29.5017ZM39.4253 29.5017C39.4253 23.2292 39.7471 18.3389 40.3908 14.8306C41.1418 11.2159 42.4828 8.34552 44.4138 6.21927C46.4521 3.98671 49.5096 2.39203 53.5862 1.43522C57.6628 0.478407 63.1341 0 70 0V11.0033C65.0651 11.0033 61.8467 11.7475 60.3448 13.2359C59.5939 13.9801 59.0575 15.0432 58.7356 16.4252C58.5211 17.701 58.4138 19.402 58.4138 21.5282V23.6013H70V48H39.4253V29.5017Z" fill="#443F41"/>
</svg>
