<svg width="48" height="48" viewBox="0 0 48 48" fill="none" xmlns="http://www.w3.org/2000/svg">
<path d="M40.5 9V18C40.5 18.3978 40.342 18.7794 40.0607 19.0607C39.7794 19.342 39.3978 19.5 39 19.5C38.6022 19.5 38.2206 19.342 37.9393 19.0607C37.658 18.7794 37.5 18.3978 37.5 18V12.6206L29.5613 20.5613C29.2798 20.8427 28.898 21.0008 28.5 21.0008C28.102 21.0008 27.7202 20.8427 27.4387 20.5613C27.1573 20.2798 26.9992 19.898 26.9992 19.5C26.9992 19.102 27.1573 18.7202 27.4387 18.4387L35.3794 10.5H30C29.6022 10.5 29.2206 10.342 28.9393 10.0607C28.658 9.77936 28.5 9.39782 28.5 9C28.5 8.60218 28.658 8.22064 28.9393 7.93934C29.2206 7.65804 29.6022 7.5 30 7.5H39C39.3978 7.5 39.7794 7.65804 40.0607 7.93934C40.342 8.22064 40.5 8.60218 40.5 9ZM18.4387 27.4387L10.5 35.3794V30C10.5 29.6022 10.342 29.2206 10.0607 28.9393C9.77936 28.658 9.39782 28.5 9 28.5C8.60218 28.5 8.22064 28.658 7.93934 28.9393C7.65804 29.2206 7.5 29.6022 7.5 30V39C7.5 39.3978 7.65804 39.7794 7.93934 40.0607C8.22064 40.342 8.60218 40.5 9 40.5H18C18.3978 40.5 18.7794 40.342 19.0607 40.0607C19.342 39.7794 19.5 39.3978 19.5 39C19.5 38.6022 19.342 38.2206 19.0607 37.9393C18.7794 37.658 18.3978 37.5 18 37.5H12.6206L20.5613 29.5613C20.8427 29.2798 21.0008 28.898 21.0008 28.5C21.0008 28.102 20.8427 27.7202 20.5613 27.4387C20.2798 27.1573 19.898 26.9992 19.5 26.9992C19.102 26.9992 18.7202 27.1573 18.4387 27.4387ZM39 28.5C38.6022 28.5 38.2206 28.658 37.9393 28.9393C37.658 29.2206 37.5 29.6022 37.5 30V35.3794L29.5613 27.4387C29.2798 27.1573 28.898 26.9992 28.5 26.9992C28.102 26.9992 27.7202 27.1573 27.4387 27.4387C27.1573 27.7202 26.9992 28.102 26.9992 28.5C26.9992 28.898 27.1573 29.2798 27.4387 29.5613L35.3794 37.5H30C29.6022 37.5 29.2206 37.658 28.9393 37.9393C28.658 38.2206 28.5 38.6022 28.5 39C28.5 39.3978 28.658 39.7794 28.9393 40.0607C29.2206 40.342 29.6022 40.5 30 40.5H39C39.3978 40.5 39.7794 40.342 40.0607 40.0607C40.342 39.7794 40.5 39.3978 40.5 39V30C40.5 29.6022 40.342 29.2206 40.0607 28.9393C39.7794 28.658 39.3978 28.5 39 28.5ZM12.6206 10.5H18C18.3978 10.5 18.7794 10.342 19.0607 10.0607C19.342 9.77936 19.5 9.39782 19.5 9C19.5 8.60218 19.342 8.22064 19.0607 7.93934C18.7794 7.65804 18.3978 7.5 18 7.5H9C8.60218 7.5 8.22064 7.65804 7.93934 7.93934C7.65804 8.22064 7.5 8.60218 7.5 9V18C7.5 18.3978 7.65804 18.7794 7.93934 19.0607C8.22064 19.342 8.60218 19.5 9 19.5C9.39782 19.5 9.77936 19.342 10.0607 19.0607C10.342 18.7794 10.5 18.3978 10.5 18V12.6206L18.4387 20.5613C18.7202 20.8427 19.102 21.0008 19.5 21.0008C19.898 21.0008 20.2798 20.8427 20.5613 20.5613C20.8427 20.2798 21.0008 19.898 21.0008 19.5C21.0008 19.102 20.8427 18.7202 20.5613 18.4387L12.6206 10.5Z" fill="#6CBE45"/>
</svg>
