<svg width="48" height="48" viewBox="0 0 48 48" fill="none" xmlns="http://www.w3.org/2000/svg">
<path d="M31.5 7.60875V6C31.5 4.80653 31.0259 3.66193 30.182 2.81802C29.3381 1.97411 28.1935 1.5 27 1.5H21C19.8065 1.5 18.6619 1.97411 17.818 2.81802C16.9741 3.66193 16.5 4.80653 16.5 6V7.60875C14.0027 7.97275 11.7195 9.22267 10.0672 11.1304C8.41493 13.038 7.50376 15.4763 7.5 18V40.5C7.5 41.2957 7.81607 42.0587 8.37868 42.6213C8.94129 43.1839 9.70435 43.5 10.5 43.5H37.5C38.2956 43.5 39.0587 43.1839 39.6213 42.6213C40.1839 42.0587 40.5 41.2957 40.5 40.5V18C40.4962 15.4763 39.5851 13.038 37.9328 11.1304C36.2805 9.22267 33.9973 7.97275 31.5 7.60875ZM21 4.5H27C27.3978 4.5 27.7794 4.65804 28.0607 4.93934C28.342 5.22064 28.5 5.60218 28.5 6V7.5H19.5V6C19.5 5.60218 19.658 5.22064 19.9393 4.93934C20.2206 4.65804 20.6022 4.5 21 4.5ZM31.5 30H16.5V28.5C16.5 28.1022 16.658 27.7206 16.9393 27.4393C17.2206 27.158 17.6022 27 18 27H30C30.3978 27 30.7794 27.158 31.0607 27.4393C31.342 27.7206 31.5 28.1022 31.5 28.5V30ZM16.5 33H25.5V34.5C25.5 34.8978 25.658 35.2794 25.9393 35.5607C26.2206 35.842 26.6022 36 27 36C27.3978 36 27.7794 35.842 28.0607 35.5607C28.342 35.2794 28.5 34.8978 28.5 34.5V33H31.5V40.5H16.5V33ZM37.5 40.5H34.5V28.5C34.5 27.3065 34.0259 26.1619 33.182 25.318C32.3381 24.4741 31.1935 24 30 24H18C16.8065 24 15.6619 24.4741 14.818 25.318C13.9741 26.1619 13.5 27.3065 13.5 28.5V40.5H10.5V18C10.5 16.0109 11.2902 14.1032 12.6967 12.6967C14.1032 11.2902 16.0109 10.5 18 10.5H30C31.9891 10.5 33.8968 11.2902 35.3033 12.6967C36.7098 14.1032 37.5 16.0109 37.5 18V40.5ZM28.5 16.5C28.5 16.8978 28.342 17.2794 28.0607 17.5607C27.7794 17.842 27.3978 18 27 18H21C20.6022 18 20.2206 17.842 19.9393 17.5607C19.658 17.2794 19.5 16.8978 19.5 16.5C19.5 16.1022 19.658 15.7206 19.9393 15.4393C20.2206 15.158 20.6022 15 21 15H27C27.3978 15 27.7794 15.158 28.0607 15.4393C28.342 15.7206 28.5 16.1022 28.5 16.5Z" fill="#6CBE45"/>
</svg>
