<svg width="71" height="46" viewBox="0 0 71 46" fill="none" xmlns="http://www.w3.org/2000/svg">
<g clip-path="url(#clip0_138_436)">
<path d="M0.887453 39.054C1.31954 38.77 17.9386 35.8144 34.5015 34.3785C51.0921 32.7218 67.6231 32.5881 68.5045 32.8272C70.2702 33.2903 70.1533 34.8793 69.8483 35.2016C69.732 35.3699 52.6409 35.3918 35.3977 36.8784C18.1743 38.1267 0.798857 40.8427 0.546883 40.8109C-0.0145925 40.7412 0.237774 39.4845 0.887453 39.054Z" fill="#6CBE45"/>
</g>
<path d="M20.7031 35.625C20.7656 34.9167 20.8177 34.0208 20.8594 32.9375C20.901 31.8542 20.9115 30.6979 20.8906 29.4688C20.8906 28.2396 20.8594 27.0104 20.7969 25.7812C20.7344 24.5312 20.6302 23.4062 20.4844 22.4062C20.3594 21.4062 20.1823 20.5833 19.9531 19.9375C19.7448 19.2708 19.4844 18.9062 19.1719 18.8438C18.5052 18.6354 17.8594 18.6979 17.2344 19.0312C16.6302 19.3438 16.0573 19.8542 15.5156 20.5625C14.974 21.25 14.474 22.0833 14.0156 23.0625C13.5573 24.0208 13.1302 25.0417 12.7344 26.125C12.3594 27.1875 12.0156 28.2604 11.7031 29.3438C11.4115 30.4062 11.1719 31.3854 10.9844 32.2812C10.7969 33.1771 10.651 33.9479 10.5469 34.5938C10.4635 35.2188 10.4323 35.625 10.4531 35.8125C10.3073 35.8125 10.1198 35.8438 9.89062 35.9062C9.68229 35.9479 9.47396 35.9792 9.26562 36C9.05729 36.0417 8.86979 36.0417 8.70312 36C8.55729 35.9375 8.48438 35.8021 8.48438 35.5938L7.95312 9.875C7.95312 9.6875 8.03646 9.57292 8.20312 9.53125C8.36979 9.46875 8.55729 9.44792 8.76562 9.46875C8.97396 9.48958 9.17188 9.54167 9.35938 9.625C9.54688 9.70833 9.67188 9.79167 9.73438 9.875L9.89062 29.625C10.0156 29.2708 10.1719 28.6979 10.3594 27.9062C10.5677 27.1146 10.8281 26.2292 11.1406 25.25C11.4531 24.2708 11.8385 23.2708 12.2969 22.25C12.7552 21.2083 13.3073 20.2812 13.9531 19.4688C14.6198 18.6354 15.401 17.9792 16.2969 17.5C17.2135 17.0208 18.2656 16.8333 19.4531 16.9375C19.8281 17.1458 20.1615 17.4167 20.4531 17.75C20.7656 18.0625 21.0365 18.5104 21.2656 19.0938C21.5156 19.6562 21.724 20.375 21.8906 21.25C22.0781 22.125 22.2344 23.2188 22.3594 24.5312C22.4844 25.8438 22.5781 27.4167 22.6406 29.25C22.724 31.0833 22.776 33.2292 22.7969 35.6875C22.7344 35.8333 22.6094 35.9688 22.4219 36.0938C22.2344 36.2396 22.026 36.3333 21.7969 36.375C21.5885 36.4167 21.3802 36.3854 21.1719 36.2812C20.9635 36.1771 20.8073 35.9583 20.7031 35.625ZM25.1719 27.6562C25.026 27.7812 24.7656 27.8333 24.3906 27.8125C24.0365 27.7708 23.7031 27.6875 23.3906 27.5625C23.099 27.4375 22.901 27.2708 22.7969 27.0625C22.6927 26.8333 22.8177 26.5729 23.1719 26.2812C23.3177 26.1562 23.474 26.0729 23.6406 26.0312C23.8281 25.9688 24.0052 25.9167 24.1719 25.875C24.3594 25.8125 24.5052 25.7292 24.6094 25.625C24.7344 25.5208 24.8073 25.3542 24.8281 25.125C24.849 24.1875 24.9219 23.2292 25.0469 22.25C25.1927 21.2708 25.4531 20.3958 25.8281 19.625C26.2031 18.8542 26.7344 18.2396 27.4219 17.7812C28.1302 17.3229 29.0573 17.1458 30.2031 17.25C30.6198 17.25 31.0885 17.3542 31.6094 17.5625C32.1302 17.75 32.6302 18.0104 33.1094 18.3438C33.5885 18.6562 34.0052 19.0417 34.3594 19.5C34.7135 19.9375 34.9323 20.4167 35.0156 20.9375C35.1615 21.1458 35.0781 21.4062 34.7656 21.7188C34.4531 22.0312 34.0156 22.3854 33.4531 22.7812C32.8906 23.1562 32.2552 23.5417 31.5469 23.9375C30.8385 24.3333 30.151 24.7083 29.4844 25.0625C28.8385 25.4167 28.2656 25.7292 27.7656 26C27.2656 26.2708 26.9427 26.4583 26.7969 26.5625C26.9219 27.375 27.0573 28.2292 27.2031 29.125C27.349 30.0208 27.5573 30.8438 27.8281 31.5938C28.099 32.3438 28.4323 32.9688 28.8281 33.4688C29.2448 33.9479 29.7656 34.1875 30.3906 34.1875C31.3073 34.25 32.0885 34.1146 32.7344 33.7812C33.401 33.4479 33.9531 33.0104 34.3906 32.4688C34.8281 31.9271 35.1719 31.3333 35.4219 30.6875C35.6927 30.0417 35.8906 29.4271 36.0156 28.8438C36.1615 28.2604 36.2552 27.7708 36.2969 27.375C36.3594 26.9583 36.4115 26.7292 36.4531 26.6875C36.6823 26.5625 36.9427 26.5625 37.2344 26.6875C37.526 26.7917 37.6927 27.0938 37.7344 27.5938C37.7552 28.4062 37.5781 29.3333 37.2031 30.375C36.8281 31.4167 36.3073 32.375 35.6406 33.25C34.9948 34.125 34.2135 34.8333 33.2969 35.375C32.401 35.8958 31.4427 36.0729 30.4219 35.9062C29.3594 35.8854 28.5156 35.5833 27.8906 35C27.2656 34.3958 26.7656 33.6771 26.3906 32.8438C26.0365 31.9896 25.776 31.0938 25.6094 30.1562C25.4427 29.2188 25.2969 28.3854 25.1719 27.6562ZM33.3594 20.9375C32.6927 20.0208 32.0156 19.4375 31.3281 19.1875C30.6406 18.9375 29.9323 18.8646 29.2031 18.9688C28.7656 19.0312 28.3802 19.2396 28.0469 19.5938C27.7135 19.9271 27.4427 20.3646 27.2344 20.9062C27.026 21.4271 26.8802 22.0208 26.7969 22.6875C26.7135 23.3333 26.7031 24 26.7656 24.6875L33.3594 20.9375ZM39.1719 9.9375C39.2969 9.85417 39.4219 9.77083 39.5469 9.6875C39.6927 9.58333 39.8385 9.52083 39.9844 9.5C40.1302 9.45833 40.2552 9.46875 40.3594 9.53125C40.4844 9.59375 40.5885 9.72917 40.6719 9.9375L40.8594 35.7188C40.7552 35.9271 40.6198 36.0625 40.4531 36.125C40.2865 36.2083 40.1198 36.2292 39.9531 36.1875C39.7865 36.1667 39.6302 36.1042 39.4844 36C39.3594 35.8958 39.276 35.7708 39.2344 35.625L39.1719 9.9375ZM43.1406 9.9375C43.2656 9.85417 43.3906 9.77083 43.5156 9.6875C43.6615 9.58333 43.8073 9.52083 43.9531 9.5C44.099 9.45833 44.224 9.46875 44.3281 9.53125C44.4531 9.59375 44.5573 9.72917 44.6406 9.9375L44.8281 35.7188C44.724 35.9271 44.5885 36.0625 44.4219 36.125C44.2552 36.2083 44.0885 36.2292 43.9219 36.1875C43.7552 36.1667 43.599 36.1042 43.4531 36C43.3281 35.8958 43.2448 35.7708 43.2031 35.625L43.1406 9.9375ZM50.5156 35.875C49.6823 35.7708 48.9948 35.4375 48.4531 34.875C47.9323 34.3125 47.5156 33.625 47.2031 32.8125C46.8906 32 46.6823 31.1146 46.5781 30.1562C46.4948 29.1771 46.474 28.2188 46.5156 27.2812C46.5781 25.8438 46.8385 24.4688 47.2969 23.1562C47.776 21.8438 48.3594 20.7083 49.0469 19.75C49.7552 18.7708 50.526 18.0208 51.3594 17.5C52.2135 16.9583 53.0469 16.75 53.8594 16.875C54.7135 17 55.401 17.4062 55.9219 18.0938C56.4635 18.7812 56.8802 19.625 57.1719 20.625C57.4635 21.625 57.6406 22.7188 57.7031 23.9062C57.7656 25.0729 57.7552 26.1979 57.6719 27.2812C57.5677 28.5104 57.2969 29.6562 56.8594 30.7188C56.4219 31.7812 55.8698 32.6979 55.2031 33.4688C54.5573 34.2396 53.8177 34.8438 52.9844 35.2812C52.1719 35.6979 51.349 35.8958 50.5156 35.875ZM53.5469 18.6562C52.8594 18.5729 52.2135 18.7917 51.6094 19.3125C51.026 19.8125 50.4948 20.4896 50.0156 21.3438C49.5573 22.1771 49.1719 23.1354 48.8594 24.2188C48.5469 25.2812 48.3385 26.3333 48.2344 27.375C48.151 28.125 48.1198 28.8958 48.1406 29.6875C48.1615 30.4792 48.2552 31.1979 48.4219 31.8438C48.6094 32.4896 48.8906 33.0208 49.2656 33.4375C49.6615 33.8333 50.1823 34.0312 50.8281 34.0312C51.349 34.0521 51.8906 33.875 52.4531 33.5C53.0365 33.125 53.5781 32.625 54.0781 32C54.5781 31.3542 55.0156 30.625 55.3906 29.8125C55.7865 29 56.0469 28.1667 56.1719 27.3125C56.3177 26.4167 56.349 25.5 56.2656 24.5625C56.2031 23.6042 56.0469 22.7188 55.7969 21.9062C55.5677 21.0938 55.2552 20.3958 54.8594 19.8125C54.4844 19.2083 54.0469 18.8229 53.5469 18.6562ZM59.6406 34.75C59.6406 34.3333 59.7448 34.0417 59.9531 33.875C60.1823 33.7083 60.4323 33.6458 60.7031 33.6875C60.974 33.7292 61.224 33.8542 61.4531 34.0625C61.6823 34.2708 61.7969 34.5417 61.7969 34.875C61.7969 35.2292 61.6719 35.5 61.4219 35.6875C61.1927 35.875 60.9323 35.9688 60.6406 35.9688C60.3698 35.9479 60.1198 35.8438 59.8906 35.6562C59.6823 35.4479 59.599 35.1458 59.6406 34.75ZM59.6719 10.125C59.8385 9.85417 60.0156 9.6875 60.2031 9.625C60.3906 9.5625 60.5677 9.55208 60.7344 9.59375C60.901 9.63542 61.0365 9.70833 61.1406 9.8125C61.2656 9.89583 61.3385 9.96875 61.3594 10.0312C61.3594 11.3021 61.3385 12.7812 61.2969 14.4688C61.2552 16.1354 61.224 17.8438 61.2031 19.5938C61.1823 21.3438 61.1823 23.0521 61.2031 24.7188C61.2448 26.3854 61.3281 27.8438 61.4531 29.0938C61.3698 29.3438 61.224 29.5208 61.0156 29.625C60.8281 29.7083 60.6302 29.7396 60.4219 29.7188C60.2344 29.6771 60.0573 29.5938 59.8906 29.4688C59.724 29.3438 59.6198 29.1875 59.5781 29L59.6719 10.125Z" fill="#2A2728"/>
<defs>
<clipPath id="clip0_138_436">
<rect width="70" height="5" fill="white" transform="translate(0 35.8357) rotate(-3.00082)"/>
</clipPath>
</defs>
</svg>
