<svg width="84" height="40" viewBox="0 0 84 40" fill="none" xmlns="http://www.w3.org/2000/svg">
<path d="M13.3333 16.0426H20.7552C19.6497 19.0684 16.738 21.2378 13.3333 21.2378C8.97366 21.2378 5.42883 17.693 5.42883 13.3333C5.42883 8.97366 8.97366 5.42883 13.3333 5.42883C15.5806 5.42883 17.61 6.37343 19.0424 7.87855L23.5163 4.74374C21.0718 1.84767 17.4076 0 13.3333 0C5.97898 0 0 5.98417 0 13.3333C0 20.6825 5.97379 26.6667 13.3333 26.6667C16.2813 26.6667 19.0269 25.7013 21.2378 24.0612V26.6667C21.2378 31.0263 17.693 34.5712 13.3333 34.5712C8.97366 34.5712 5.42883 31.0263 5.42883 26.6667H0.00517932C0.00517932 34.0158 5.97897 40 13.3385 40C20.6981 40 26.6719 34.0158 26.6719 26.6667V10.6241H13.3385V16.0478L13.3333 16.0426Z" fill="#6CBE45"/>
<path d="M53.0686 25.7739C53.0686 23.9522 51.5842 22.4679 49.7625 22.4679H45.5274V31.8931H47.5204V29.0645H49.3162L51.2365 31.8931H53.6447L51.4234 28.6233C52.4147 28.0524 53.0686 26.978 53.0686 25.7739ZM49.7625 27.0715H47.5256V24.4661H49.7625C50.4839 24.4661 51.0704 25.0525 51.0704 25.7739C51.0704 26.4954 50.4943 27.0715 49.7625 27.0715Z" fill="white"/>
<path d="M67.5957 31.8931H69.5939V28.1821H73.5383V26.184H69.5939V24.4661H74.1456V22.4731H67.5957V31.8931Z" fill="white"/>
<path d="M77.2596 31.8931H79.2578V28.1821H83.2023V26.184H79.2578V24.4661H83.8095V22.4731H77.2596V31.8931Z" fill="white"/>
<path d="M37.763 28.1821H40.4775C40.0726 29.2928 39.0087 30.0817 37.763 30.0817C36.1645 30.0817 34.8722 28.7842 34.8722 27.1805C34.8722 25.5767 36.1697 24.2896 37.763 24.2896C38.5831 24.2896 39.3253 24.6321 39.8443 25.1875L41.5051 24.0508C40.6228 22.9765 39.2682 22.2966 37.763 22.2966C35.0642 22.2966 32.874 24.4816 32.874 27.1856C32.874 29.8897 35.059 32.0799 37.763 32.0799C40.1193 32.0799 42.0864 30.4087 42.5483 28.1873C42.6158 27.8656 42.6521 27.5282 42.6521 27.1856V26.1943H37.763V28.1873V28.1821Z" fill="white"/>
<path d="M59.5562 22.4731L55.4664 31.8983H65.2342L61.1444 22.4731H59.551H59.5562ZM58.513 29.9001L60.3503 25.6598L62.1928 29.9001H58.513Z" fill="white"/>
<path d="M50.9147 16.2501V10.6189H48.9166V16.2501C48.9166 17.3401 48.029 18.2224 46.9443 18.2224C45.8596 18.2224 44.9721 17.3349 44.9721 16.2501V10.6189H42.9739V16.2501C42.9739 18.4404 44.7541 20.2206 46.9443 20.2206C49.1345 20.2206 50.9147 18.4404 50.9147 16.2501Z" fill="white"/>
<path d="M62.5509 15.3263C62.5509 12.7261 60.4386 10.6137 57.8383 10.6137H54.2364V20.0389H57.8383C60.4386 20.0389 62.5509 17.9265 62.5509 15.3263ZM56.2346 12.6119H57.8435C59.3434 12.6119 60.5579 13.8316 60.5579 15.3263C60.5579 16.8211 59.3382 18.0407 57.8435 18.0407H56.2346V12.6067V12.6119Z" fill="white"/>
<path d="M81.8165 10.6137V16.2657L77.4776 10.6137H75.8739V20.0389H77.872V14.4907L82.211 20.0389H83.8095V10.6137H81.8165Z" fill="white"/>
<path d="M36.2683 20.1842C37.5503 20.1842 38.6661 19.4732 39.2422 18.4248C39.5017 17.9473 39.6522 17.392 39.6522 16.8003V10.6189H35.713V12.6119H37.6593V16.8003C37.6593 17.5684 37.0364 18.1912 36.2683 18.1912C35.5002 18.1912 34.8722 17.5684 34.8722 16.8003H32.8792C32.8792 18.6739 34.3999 20.1842 36.2735 20.1842H36.2683Z" fill="white"/>
<path d="M67.8604 17.1065V20.0337H69.8534V17.1065L70.0039 16.8418L73.6058 10.6189H71.3014L69.8534 13.1153L68.8569 14.8488L67.8604 13.1153L66.4123 10.6189H64.1079L67.7099 16.8418L67.8604 17.1065Z" fill="white"/>
</svg>
